<?xml version="1.0" encoding="UTF-8"?>
<svg xmlns="http://www.w3.org/2000/svg" xmlns:xlink="http://www.w3.org/1999/xlink" width="241pt" height="305pt" viewBox="0 0 241 305">
<defs>
<g>
<g id="glyph-0-0">
<path d="M 1.640625 -0.484375 L 1.953125 -0.078125 C 2.484375 0.046875 3.96875 0.125 5.765625 0.125 C 7.25 0.125 8.046875 0.078125 8.328125 0.046875 C 8.8125 -0.140625 9.140625 -0.625 9.3125 -1.296875 L 9.265625 -1.34375 C 8.453125 -1.28125 7.046875 -1.265625 6.09375 -1.265625 C 5.109375 -1.265625 4.015625 -1.296875 3.578125 -1.421875 L 3.578125 -6.078125 L 7.1875 -6.078125 C 7.875 -6.078125 8.296875 -6.234375 8.515625 -7.453125 L 3.578125 -7.453125 L 3.578125 -11.75 L 6.4375 -11.75 C 7.359375 -11.75 7.859375 -11.75 8.140625 -11.890625 C 8.40625 -12.140625 8.609375 -12.59375 8.671875 -13.140625 C 7.078125 -13.140625 4.671875 -13.140625 3.328125 -13.140625 C 2.71875 -13.09375 2.015625 -12.96875 1.578125 -12.84375 C 1.640625 -12.046875 1.640625 -11.203125 1.640625 -10.1875 Z M 1.640625 -0.484375 "/>
</g>
<g id="glyph-0-1">
<path d="M 8.34375 -9.078125 C 7.90625 -9.203125 7.0625 -9.4375 6.078125 -9.4375 C 3.109375 -9.4375 0.734375 -7.390625 0.734375 -4.3125 C 0.734375 -1.421875 2.578125 0.25 5.015625 0.25 C 5.828125 0.25 6.84375 -0.171875 7.5 -0.59375 L 7.5 0.859375 C 7.5 2.578125 7.484375 3.828125 7.4375 4.671875 C 7.71875 4.671875 8.109375 4.640625 8.578125 4.609375 C 9.21875 4.515625 9.359375 4.40625 9.359375 4.015625 L 9.359375 -4.15625 C 9.359375 -7.109375 9.4375 -8.484375 9.4375 -9.140625 L 9.328125 -9.140625 Z M 7.5 -1.71875 C 7.046875 -1.453125 6.328125 -1.234375 5.796875 -1.234375 C 3.890625 -1.234375 2.6875 -2.546875 2.6875 -4.609375 C 2.6875 -7.078125 4.4375 -8.171875 5.90625 -8.171875 C 6.640625 -8.171875 7.203125 -8.046875 7.5 -7.90625 Z M 7.5 -1.71875 "/>
</g>
<g id="glyph-0-2">
<path d="M 1.484375 -3.234375 C 1.484375 -1.15625 2.515625 0.25 4.671875 0.25 C 5.171875 0.25 5.609375 0.140625 6.03125 -0.015625 C 6.46875 -0.203125 7.140625 -0.546875 7.796875 -1.234375 C 7.921875 -0.34375 8.421875 0.25 9.3125 0.25 C 9.765625 0.25 10.28125 -0.375 10.296875 -0.796875 L 10.296875 -0.90625 C 9.734375 -1.015625 9.4375 -1.21875 9.4375 -2.234375 L 9.4375 -5.546875 C 9.4375 -7.375 9.5 -8.84375 9.5 -9.3125 C 9.015625 -9.3125 8.53125 -9.25 7.921875 -9.1875 C 7.65625 -9.078125 7.59375 -9 7.59375 -8.46875 L 7.59375 -2.359375 C 7.234375 -1.9375 6.390625 -1.296875 5.40625 -1.296875 C 4.453125 -1.296875 3.34375 -1.59375 3.34375 -3.765625 C 3.34375 -5.125 3.34375 -6.625 3.328125 -8 C 3.328125 -9.203125 3.234375 -9.3125 3.03125 -9.3125 C 2.640625 -9.3125 1.765625 -9.203125 1.40625 -9.09375 C 1.453125 -8.65625 1.484375 -8.03125 1.484375 -6.71875 Z M 1.484375 -3.234375 "/>
</g>
<g id="glyph-0-3">
<path d="M 8.703125 -1.15625 C 8.578125 -1.109375 8.390625 -1.09375 8.265625 -1.09375 C 7.84375 -1.09375 7.59375 -1.34375 7.5625 -1.75 C 7.546875 -3.03125 7.609375 -4.984375 7.609375 -5.890625 C 7.609375 -7.90625 6.578125 -9.4375 4.4375 -9.4375 C 3 -9.4375 1.59375 -8.640625 0.953125 -8.03125 C 1.03125 -7.390625 1.34375 -6.953125 1.96875 -7.25 C 2.546875 -7.625 3.296875 -7.96875 4.015625 -7.96875 C 5.28125 -7.96875 5.828125 -7 5.828125 -6.078125 L 5.828125 -5.53125 C 5.53125 -5.484375 5.078125 -5.40625 4.703125 -5.3125 C 3.546875 -5.015625 0.671875 -4.40625 0.671875 -2.171875 C 0.671875 -0.859375 1.703125 0.25 3.15625 0.25 C 4.28125 0.25 5.28125 -0.4375 5.828125 -1.046875 C 5.96875 -0.375 6.4375 0.25 7.328125 0.25 C 8.265625 0.25 8.765625 -0.1875 8.75 -1.09375 Z M 2.5 -2.421875 C 2.5 -3.578125 4.078125 -4.15625 5.796875 -4.390625 L 5.796875 -2.921875 C 5.796875 -2.546875 5.765625 -2.359375 5.65625 -2.1875 C 5.34375 -1.71875 4.703125 -1.203125 3.84375 -1.203125 C 3.109375 -1.203125 2.5 -1.640625 2.5 -2.390625 Z M 2.5 -2.421875 "/>
</g>
<g id="glyph-0-4">
<path d="M 6.625 -1.59375 C 6.265625 -1.359375 5.65625 -1.15625 5.015625 -1.15625 C 4.3125 -1.15625 3.640625 -1.46875 3.53125 -2.6875 C 3.453125 -3.59375 3.421875 -5.78125 3.53125 -7.875 C 5.015625 -7.875 5.125 -7.90625 5.84375 -7.9375 C 6.21875 -7.96875 6.6875 -8.0625 6.890625 -9.15625 C 6.578125 -9.15625 4.390625 -9.15625 3.546875 -9.15625 C 3.546875 -9.625 3.59375 -10.125 3.640625 -10.78125 C 3.15625 -10.71875 2.796875 -10.515625 2.515625 -10.25 C 2.203125 -9.984375 0.875 -8.765625 0.65625 -8.34375 C 0.65625 -8.109375 0.953125 -7.859375 1.6875 -7.859375 C 1.6875 -5.28125 1.6875 -3.421875 1.6875 -2.515625 C 1.6875 -0.921875 2.421875 0.25 4.3125 0.25 C 5.0625 0.25 5.859375 0.046875 6.28125 -0.3125 C 6.65625 -0.609375 6.765625 -1.140625 6.6875 -1.5625 Z M 6.625 -1.59375 "/>
</g>
<g id="glyph-0-5">
<path d="M 5.4375 -9.4375 C 2.671875 -9.4375 0.734375 -7.265625 0.734375 -4.5 C 0.734375 -2 2.265625 0.25 5.359375 0.25 C 8.203125 0.25 10 -1.875 10 -4.6875 C 10 -7.421875 8.390625 -9.4375 5.46875 -9.4375 Z M 5.3125 -8.203125 C 7.265625 -8.203125 8.046875 -6.328125 8.046875 -4.546875 C 8.046875 -2.03125 6.765625 -0.984375 5.53125 -0.984375 C 3.96875 -0.984375 2.6875 -2.234375 2.6875 -4.734375 C 2.6875 -6.953125 3.9375 -8.203125 5.296875 -8.203125 Z M 5.3125 -8.203125 "/>
</g>
<g id="glyph-0-6">
<path d="M 1.09375 -8.578125 C 1.46875 -8.296875 1.578125 -7.8125 1.578125 -7.25 L 1.578125 -3.734375 C 1.578125 -1.890625 1.5625 -0.65625 1.515625 0.125 C 2 0.125 2.5 0.109375 3.046875 0.046875 C 3.359375 0 3.421875 -0.140625 3.421875 -0.46875 C 3.421875 -1.265625 3.421875 -3.765625 3.421875 -5.078125 C 3.421875 -5.546875 3.515625 -5.84375 3.65625 -6.203125 C 4.09375 -7.234375 4.796875 -7.671875 5.25 -7.671875 C 5.484375 -7.671875 5.71875 -7.625 6.015625 -7.53125 C 6.265625 -7.5 6.515625 -7.6875 6.640625 -7.9375 C 6.84375 -8.265625 6.921875 -8.78125 6.890625 -9.03125 C 6.75 -9.203125 6.328125 -9.4375 5.859375 -9.4375 C 4.875 -9.4375 3.96875 -8.71875 3.296875 -7.359375 C 3.296875 -8.703125 2.875 -9.4375 2.3125 -9.4375 C 1.953125 -9.4375 1.28125 -8.96875 1.09375 -8.65625 Z M 1.09375 -8.578125 "/>
</g>
<g id="glyph-0-7">
<path d="M 9.984375 -13.21875 C 9.515625 -13.21875 9.0625 -13.09375 8.609375 -12.921875 C 8.65625 -12.75 8.71875 -12.53125 8.75 -12.34375 C 7.546875 -8.515625 6.375 -4.578125 5.78125 -2.546875 C 4.609375 -6.75 3.59375 -9.890625 3 -11.890625 C 2.671875 -13.015625 2.546875 -13.21875 2.234375 -13.21875 C 1.875 -13.21875 0.984375 -13.015625 0.609375 -12.8125 C 2.1875 -8.84375 3.59375 -3.890625 4.890625 0.25 C 5.3125 0.25 5.859375 0.140625 6.09375 0.046875 C 6.375 -0.078125 6.5 -0.296875 6.640625 -0.796875 C 7.171875 -2.609375 8.828125 -7.984375 9.484375 -10.171875 C 10.703125 -5.90625 11.828125 -1.71875 12.375 0.25 C 12.78125 0.25 13.484375 0.125 13.640625 0.015625 C 13.84375 -0.125 13.953125 -0.34375 14.125 -0.796875 C 15.328125 -4.015625 16.953125 -8.546875 18.203125 -12.234375 C 18.390625 -12.78125 18.28125 -13.015625 17.90625 -13.078125 C 17.484375 -13.171875 16.984375 -13.21875 16.796875 -13.21875 C 16.328125 -11.6875 15.234375 -8.34375 13.328125 -2.5 C 11.890625 -7.609375 10.828125 -11.5 10.40625 -12.71875 C 10.296875 -13.03125 10.1875 -13.21875 10 -13.21875 Z M 9.984375 -13.21875 "/>
</g>
<g id="glyph-0-8">
<path d="M 1.90625 -9.4375 C 1.515625 -9.4375 0.71875 -9.1875 0.359375 -8.96875 C 0.65625 -8.390625 0.96875 -7.65625 1.640625 -5.953125 C 2.90625 -2.671875 3.53125 -1.109375 4 0.25 C 4.328125 0.234375 4.796875 0.140625 5.15625 0.046875 C 5.40625 -0.046875 5.546875 -0.234375 5.71875 -0.609375 C 7.203125 -4.25 7.875 -5.890625 8.703125 -7.90625 C 9.015625 -8.671875 9.078125 -9 8.78125 -9.140625 C 8.390625 -9.359375 7.9375 -9.4375 7.546875 -9.4375 C 6.9375 -7.625 5.5625 -4.1875 4.859375 -2.140625 C 4.03125 -4.578125 2.8125 -7.875 2.390625 -9 C 2.265625 -9.28125 2.125 -9.4375 1.9375 -9.4375 Z M 1.90625 -9.4375 "/>
</g>
<g id="glyph-0-9">
<path d="M 8.15625 -1.78125 C 7.78125 -1.578125 6.71875 -1.21875 5.765625 -1.21875 C 3.90625 -1.21875 2.625 -2.390625 2.578125 -4.453125 C 4.09375 -4.390625 6.203125 -4.4375 6.765625 -4.515625 C 7.5 -4.640625 8.53125 -4.9375 8.59375 -5.28125 C 8.640625 -5.4375 8.640625 -5.71875 8.640625 -5.921875 C 8.59375 -7.625 7.5625 -9.4375 5.125 -9.4375 C 2.328125 -9.4375 0.734375 -7.078125 0.734375 -4.453125 C 0.734375 -1.46875 2.328125 0.25 5.28125 0.25 C 6.140625 0.25 7 -0.015625 7.359375 -0.203125 C 7.734375 -0.40625 8.203125 -1.03125 8.21875 -1.71875 Z M 4.890625 -8.265625 C 6.203125 -8.265625 6.84375 -7.3125 6.828125 -6.078125 C 6.828125 -5.828125 6.640625 -5.65625 6.390625 -5.625 C 6.015625 -5.609375 4.140625 -5.59375 2.671875 -5.625 C 2.8125 -7.3125 3.84375 -8.265625 4.875 -8.265625 Z M 4.890625 -8.265625 "/>
</g>
<g id="glyph-0-10">
<path d="M 3.421875 -6.71875 C 3.96875 -7.265625 4.796875 -7.921875 5.71875 -7.921875 C 6.9375 -7.921875 7.609375 -7.109375 7.609375 -5.5 L 7.609375 -3.734375 C 7.609375 -1.890625 7.59375 -0.65625 7.546875 0.125 C 8 0.125 8.46875 0.125 9.03125 0.046875 C 9.421875 0 9.453125 -0.109375 9.453125 -0.5 L 9.453125 -6.78125 C 9.984375 -7.296875 10.734375 -7.921875 11.734375 -7.921875 C 12.96875 -7.921875 13.640625 -7.125 13.640625 -5.53125 L 13.640625 -0.203125 C 13.640625 0.015625 13.71875 0.125 13.9375 0.125 C 14.5 0.125 15.109375 0.015625 15.546875 -0.046875 C 15.515625 -0.5625 15.484375 -1.46875 15.484375 -2.6875 L 15.484375 -5.734375 C 15.484375 -7.734375 14.6875 -9.4375 12.46875 -9.4375 C 11.25 -9.4375 10 -8.609375 9.140625 -7.78125 C 8.671875 -8.78125 7.9375 -9.4375 6.53125 -9.4375 C 5.375 -9.4375 4.203125 -8.65625 3.328125 -7.859375 C 3.25 -8.453125 3.09375 -9.421875 2.421875 -9.421875 C 2.0625 -9.421875 1.40625 -9.015625 1.203125 -8.71875 L 1.203125 -8.609375 C 1.46875 -8.453125 1.578125 -8 1.578125 -7.3125 L 1.578125 -3.734375 C 1.578125 -1.890625 1.5625 -0.65625 1.515625 0.125 C 2 0.125 2.5 0.125 3 0.046875 C 3.328125 0 3.421875 -0.109375 3.421875 -0.4375 Z M 3.421875 -6.71875 "/>
</g>
<g id="glyph-0-11">
<path d="M 4.609375 -9.4375 C 2.515625 -9.4375 0.953125 -8 0.953125 -6.078125 C 0.953125 -4.796875 1.640625 -3.796875 2.671875 -3.34375 C 2.328125 -2.984375 1.78125 -2.609375 1.359375 -2.3125 C 1.21875 -2.234375 1.171875 -2.1875 1.171875 -2.078125 C 1.21875 -1.28125 1.78125 -0.6875 2.484375 -0.421875 C 1.53125 0.078125 0.484375 0.90625 0.484375 1.78125 C 0.484375 3.234375 1.90625 4.5625 4.453125 4.5625 C 7.015625 4.5625 9.3125 3.09375 9.3125 0.84375 C 9.3125 -0.4375 8.546875 -1.40625 6.875 -1.578125 C 6.09375 -1.640625 5.28125 -1.6875 4.28125 -1.75 C 3.359375 -1.8125 3.0625 -2.0625 3.0625 -2.390625 C 3.0625 -2.515625 3.421875 -2.84375 3.671875 -3.0625 C 3.96875 -2.96875 4.09375 -2.96875 4.5625 -2.96875 C 6.40625 -2.96875 8.046875 -4.015625 8.046875 -6.203125 C 8.046875 -6.65625 7.96875 -7.140625 7.6875 -7.671875 C 7.859375 -7.671875 8.15625 -7.671875 8.296875 -7.6875 C 9.03125 -7.75 9.453125 -8.046875 9.453125 -8.671875 C 9.453125 -8.828125 9.421875 -9 9.375 -9.09375 C 9.0625 -9 8.515625 -8.90625 7.984375 -8.90625 C 7.453125 -8.90625 6.84375 -9.0625 6.234375 -9.203125 C 5.734375 -9.359375 5.125 -9.4375 4.625 -9.4375 Z M 4.578125 -8.328125 C 5.84375 -8.328125 6.390625 -7.3125 6.390625 -6.203125 C 6.390625 -5.0625 5.78125 -4.078125 4.609375 -4.078125 C 3.515625 -4.078125 2.734375 -4.890625 2.734375 -6.15625 C 2.734375 -7.484375 3.53125 -8.328125 4.5625 -8.328125 Z M 2.1875 1.484375 C 2.1875 0.875 2.6875 0.40625 3.234375 0.078125 C 3.453125 -0.046875 3.828125 -0.125 4.265625 -0.125 C 4.796875 -0.125 5.53125 -0.109375 6.15625 0 C 7.359375 0.171875 7.671875 0.71875 7.671875 1.359375 C 7.671875 2.515625 6.515625 3.25 4.921875 3.25 C 3.578125 3.25 2.1875 2.671875 2.1875 1.515625 Z M 2.1875 1.484375 "/>
</g>
<g id="glyph-0-12">
<path d="M 7.75 -0.1875 C 7.75 0.015625 7.859375 0.125 8.09375 0.125 C 8.671875 0.125 9.265625 0.015625 9.703125 -0.046875 C 9.671875 -0.5625 9.625 -1.46875 9.625 -2.6875 L 9.625 -5.5625 C 9.625 -7.546875 8.96875 -9.4375 6.515625 -9.4375 C 5.359375 -9.4375 4.203125 -8.71875 3.328125 -7.859375 C 3.28125 -8.359375 3.09375 -9.421875 2.421875 -9.421875 C 2.03125 -9.421875 1.390625 -9.015625 1.203125 -8.703125 L 1.203125 -8.609375 C 1.46875 -8.40625 1.578125 -8.046875 1.578125 -7.265625 L 1.578125 -3.734375 C 1.578125 -1.890625 1.5625 -0.65625 1.515625 0.125 C 2.015625 0.109375 2.5 0.125 2.984375 0.046875 C 3.34375 0 3.421875 -0.0625 3.421875 -0.484375 L 3.421875 -6.71875 C 3.9375 -7.265625 4.75 -7.9375 5.828125 -7.9375 C 7.0625 -7.9375 7.78125 -7.125 7.78125 -5.53125 Z M 7.75 -0.1875 "/>
</g>
<g id="glyph-0-13">
<path d="M 2.4375 -13.828125 C 2 -13.828125 1.390625 -13.484375 1.390625 -12.734375 C 1.390625 -12.046875 1.84375 -11.6875 2.421875 -11.6875 C 3.046875 -11.6875 3.453125 -12.1875 3.453125 -12.78125 C 3.453125 -13.390625 3.0625 -13.828125 2.453125 -13.828125 Z M 3.359375 -8 C 3.359375 -9.203125 3.28125 -9.3125 3.046875 -9.3125 C 2.734375 -9.3125 1.8125 -9.21875 1.421875 -9.09375 C 1.46875 -8.65625 1.515625 -8 1.515625 -6.71875 L 1.515625 -3.171875 C 1.515625 -1.9375 1.46875 -0.71875 1.453125 0.125 C 2.078125 0.109375 2.609375 0.078125 2.90625 0.015625 C 3.234375 -0.015625 3.359375 -0.125 3.359375 -0.5 Z M 3.359375 -8 "/>
</g>
<g id="glyph-0-14">
<path d="M 7.609375 -9.140625 C 7.375 -9.21875 6.78125 -9.4375 5.984375 -9.4375 C 3.03125 -9.4375 0.75 -7.328125 0.75 -4.328125 C 0.75 -1.390625 2.578125 0.25 4.828125 0.25 C 5.65625 0.25 6.984375 -0.25 7.8125 -0.953125 C 7.984375 -0.3125 8.40625 0.25 9.390625 0.25 C 9.875 0.25 10.34375 -0.34375 10.421875 -0.84375 L 10.421875 -0.90625 C 9.796875 -1.015625 9.453125 -1.21875 9.453125 -2.1875 L 9.453125 -12.875 C 9.453125 -14.140625 9.375 -14.25 9.140625 -14.25 C 8.8125 -14.25 7.921875 -14.09375 7.53125 -13.953125 C 7.5625 -13.53125 7.609375 -13.03125 7.609375 -11.921875 Z M 7.609375 -1.90625 C 7.109375 -1.53125 6.3125 -1.265625 5.65625 -1.265625 C 3.953125 -1.265625 2.71875 -2.546875 2.71875 -4.5625 C 2.71875 -7.015625 4.34375 -8.171875 5.96875 -8.171875 C 6.71875 -8.171875 7.328125 -8.03125 7.609375 -7.859375 Z M 7.609375 -1.90625 "/>
</g>
<g id="glyph-1-0">
<path d="M 1.015625 -9.09375 C 1.359375 -8.390625 2.640625 -5.828125 3.15625 -4.765625 C 0.140625 -1.515625 -0.65625 -0.625 -0.65625 -0.25 C -0.65625 0.0625 0 0.5625 0.359375 0.5625 C 0.546875 0.140625 1.78125 -1.328125 3.765625 -3.46875 C 4.453125 -2.078125 5.109375 -0.734375 5.4375 -0.1875 C 5.59375 0.046875 5.71875 0.125 5.984375 0.125 C 6.40625 0.125 7.265625 0.015625 7.4375 -0.046875 L 7.4375 -0.078125 C 6.765625 -1.234375 5.921875 -2.984375 5.0625 -4.703125 C 6.890625 -6.625 8.421875 -8.265625 8.578125 -8.78125 C 8.609375 -9.203125 7.96875 -9.640625 7.65625 -9.640625 C 7.140625 -8.84375 5.84375 -7.328125 4.46875 -5.90625 C 3.953125 -6.953125 3.296875 -8.28125 2.96875 -8.9375 C 2.84375 -9.203125 2.71875 -9.4375 2.515625 -9.4375 C 2.140625 -9.4375 1.265625 -9.28125 1.03125 -9.15625 Z M 1.015625 -9.09375 "/>
</g>
<g id="glyph-1-1">
<path d="M 0.40625 4.671875 C 1.171875 4.140625 3.578125 1.515625 5.234375 -0.96875 C 7.59375 -4.46875 8.515625 -7.296875 8.515625 -8.875 C 8.515625 -9.25 8.46875 -9.4375 8.296875 -9.4375 C 7.984375 -9.4375 7.3125 -9.3125 7.125 -9.21875 C 7.015625 -7.328125 6.03125 -4.453125 3.890625 -1.40625 C 3.828125 -1.578125 3.671875 -2 3.53125 -2.859375 C 3.234375 -4.734375 2.921875 -7.265625 2.75 -9.0625 C 2.734375 -9.28125 2.6875 -9.4375 2.484375 -9.4375 C 2.234375 -9.4375 1.46875 -9.28125 1.03125 -9.078125 C 1.15625 -7.171875 1.765625 -3.03125 2.078125 -1.40625 C 2.296875 -0.4375 2.453125 -0.125 2.578125 0.1875 C 1.765625 1.28125 0.234375 2.9375 -0.8125 3.890625 C -0.84375 4.15625 -0.203125 4.671875 0.40625 4.671875 Z M 0.40625 4.671875 "/>
</g>
<g id="glyph-2-0">
<path d="M 1.796875 -6.796875 C 1.375 -6.796875 0.890625 -6.828125 0.453125 -6.84375 C 0.40625 -6.78125 0.40625 -6.5625 0.453125 -6.5 C 0.5625 -6.5 1.09375 -6.46875 1.125 -6.34375 C 1.1875 -6.15625 1.203125 -5.84375 1.203125 -5.46875 L 1.203125 -1.34375 C 1.203125 -0.96875 1.1875 -0.65625 1.125 -0.484375 C 1.09375 -0.359375 0.5625 -0.296875 0.453125 -0.296875 C 0.40625 -0.234375 0.40625 -0.015625 0.453125 0.046875 C 0.84375 0.015625 1.328125 -0.015625 1.78125 -0.015625 C 2.203125 -0.015625 2.8125 0.015625 3.234375 0.046875 C 3.28125 -0.015625 3.28125 -0.234375 3.234375 -0.296875 C 3.109375 -0.296875 2.484375 -0.359375 2.4375 -0.484375 C 2.390625 -0.65625 2.390625 -0.96875 2.390625 -1.34375 L 2.390625 -3.09375 C 2.390625 -3.1875 2.828125 -3.203125 3.125 -3.203125 C 3.515625 -3.203125 3.9375 -3.1875 4.0625 -3.125 C 4.15625 -3.078125 4.25 -3 4.390625 -2.46875 C 4.40625 -2.40625 4.46875 -2.390625 4.546875 -2.390625 C 4.625 -2.390625 4.703125 -2.40625 4.71875 -2.421875 L 4.71875 -4.390625 C 4.6875 -4.421875 4.609375 -4.453125 4.53125 -4.453125 C 4.46875 -4.453125 4.40625 -4.421875 4.390625 -4.375 C 4.234375 -3.734375 4.171875 -3.640625 3.375 -3.640625 L 2.8125 -3.640625 C 2.59375 -3.640625 2.390625 -3.671875 2.390625 -3.734375 L 2.390625 -5.625 C 2.390625 -5.921875 2.375 -6.171875 2.421875 -6.3125 C 2.46875 -6.40625 2.859375 -6.421875 3.046875 -6.421875 L 3.921875 -6.421875 C 4.5 -6.421875 4.84375 -6.140625 5.078125 -5.421875 C 5.09375 -5.375 5.15625 -5.359375 5.234375 -5.359375 C 5.3125 -5.359375 5.421875 -5.375 5.453125 -5.40625 C 5.359375 -5.875 5.21875 -6.359375 5.15625 -6.875 C 4.28125 -6.875 2.5 -6.796875 1.796875 -6.796875 Z M 1.796875 -6.796875 "/>
</g>
<g id="glyph-2-1">
<path d="M 2.140625 -3.28125 L 2.140625 -3.78125 C 2.140625 -3.90625 2.203125 -4.34375 2.21875 -4.421875 C 2.21875 -4.46875 2.140625 -4.59375 2.078125 -4.59375 C 1.671875 -4.390625 0.984375 -4.171875 0.328125 -4.109375 C 0.28125 -4.078125 0.296875 -3.828125 0.328125 -3.8125 C 0.390625 -3.8125 0.90625 -3.78125 0.984375 -3.609375 C 1.0625 -3.46875 1.0625 -3.046875 1.0625 -2.921875 L 1.0625 -1.34375 C 1.0625 -0.96875 1.0625 -0.65625 0.984375 -0.484375 C 0.9375 -0.359375 0.453125 -0.296875 0.328125 -0.296875 C 0.296875 -0.234375 0.296875 -0.015625 0.328125 0.046875 C 0.75 0.015625 1.15625 -0.015625 1.578125 -0.015625 C 2 -0.015625 2.40625 0.015625 2.8125 0.046875 C 2.859375 -0.015625 2.859375 -0.234375 2.8125 -0.296875 C 2.6875 -0.296875 2.234375 -0.359375 2.203125 -0.484375 C 2.140625 -0.65625 2.140625 -1 2.140625 -1.34375 Z M 0.875 -6.265625 C 0.875 -5.90625 1.15625 -5.640625 1.5 -5.640625 C 1.859375 -5.640625 2.140625 -5.90625 2.140625 -6.265625 C 2.140625 -6.609375 1.859375 -6.90625 1.5 -6.90625 C 1.15625 -6.90625 0.875 -6.609375 0.875 -6.265625 Z M 0.875 -6.265625 "/>
</g>
<g id="glyph-2-2">
<path d="M 2.234375 -4.234375 C 2.8125 -4.234375 3.0625 -3.53125 3.0625 -2.9375 C 3.0625 -2.40625 2.90625 -1.828125 2.359375 -1.828125 C 1.765625 -1.828125 1.484375 -2.5 1.484375 -3.109375 C 1.484375 -3.640625 1.671875 -4.234375 2.234375 -4.234375 Z M 2.65625 0.09375 C 3.484375 0.09375 3.921875 0.453125 3.921875 0.828125 C 3.921875 1.28125 3.390625 1.796875 2.53125 1.796875 C 1.734375 1.796875 1.21875 1.375 1.21875 0.6875 C 1.21875 0.453125 1.453125 0.234375 1.609375 0.125 C 1.75 0.109375 2.375 0.09375 2.65625 0.09375 Z M 3.25 -0.84375 C 2.828125 -0.84375 2.5 -0.84375 1.953125 -0.84375 C 1.625 -0.84375 1.40625 -1.03125 1.40625 -1.15625 C 1.40625 -1.296875 1.5625 -1.453125 1.703125 -1.546875 C 1.84375 -1.515625 2.078125 -1.46875 2.265625 -1.46875 C 3.3125 -1.46875 4.078125 -2.234375 4.078125 -3.03125 C 4.078125 -3.40625 3.921875 -3.703125 3.828125 -3.859375 C 3.828125 -3.875 3.859375 -3.890625 3.890625 -3.890625 C 4.015625 -3.859375 4.265625 -3.859375 4.5 -3.828125 C 4.609375 -3.890625 4.75 -4.234375 4.75 -4.3125 C 4.75 -4.359375 4.703125 -4.390625 4.65625 -4.40625 L 3.453125 -4.265625 C 3.390625 -4.28125 3.421875 -4.28125 3.3125 -4.328125 C 3.0625 -4.46875 2.71875 -4.578125 2.265625 -4.578125 C 1.25 -4.578125 0.46875 -3.859375 0.46875 -3.015625 C 0.46875 -2.46875 0.828125 -1.9375 1.375 -1.671875 C 1.09375 -1.515625 0.578125 -1.15625 0.5 -0.953125 C 0.5 -0.484375 0.875 -0.0625 1.234375 0.046875 C 0.859375 0.234375 0.234375 0.640625 0.234375 1.078125 C 0.234375 1.859375 1.0625 2.296875 2 2.296875 C 3.421875 2.296875 4.734375 1.328125 4.734375 0.265625 C 4.734375 -0.203125 4.140625 -0.8125 3.25 -0.84375 Z M 3.25 -0.84375 "/>
</g>
<g id="glyph-2-3">
<path d="M 0.46875 -0.578125 C 0.46875 -0.203125 0.78125 0.109375 1.15625 0.109375 C 1.515625 0.109375 1.8125 -0.203125 1.8125 -0.5625 C 1.8125 -0.921875 1.515625 -1.234375 1.15625 -1.234375 C 0.78125 -1.234375 0.46875 -0.9375 0.46875 -0.578125 Z M 0.46875 -0.578125 "/>
</g>
<g id="glyph-2-4">
<path d="M 3.921875 -6.671875 C 3.84375 -6.671875 3.734375 -6.546875 3.671875 -6.46875 C 3.125 -5.78125 0.828125 -2.796875 0.203125 -2.03125 C 0.203125 -1.921875 0.234375 -1.84375 0.3125 -1.796875 L 3.09375 -1.796875 L 3.09375 -0.046875 C 3.09375 0.03125 3.28125 0.0625 3.578125 0.0625 C 3.984375 0.0625 4.140625 -0.015625 4.140625 -0.015625 L 4.140625 -1.796875 L 4.78125 -1.796875 C 4.78125 -1.828125 4.84375 -1.859375 4.84375 -1.984375 C 4.84375 -2.25 4.75 -2.4375 4.6875 -2.4375 L 4.140625 -2.4375 L 4.140625 -6.4375 C 4.140625 -6.53125 4.015625 -6.671875 3.921875 -6.671875 Z M 3.09375 -5.125 L 3.09375 -2.4375 L 1 -2.4375 Z M 3.09375 -5.125 "/>
</g>
<g id="glyph-2-5">
<path d="M 2.53125 -4.25 C 2.203125 -4.25 1.703125 -4.15625 1.4375 -4.078125 C 1.5 -4.359375 1.671875 -5.25 1.75 -5.609375 L 2.53125 -5.609375 C 3.03125 -5.625 3.484375 -5.640625 3.90625 -5.6875 C 4.03125 -5.859375 4.265625 -6.421875 4.265625 -6.546875 C 4.265625 -6.625 4.1875 -6.65625 4.125 -6.6875 C 4.046875 -6.65625 3.609375 -6.59375 3.1875 -6.59375 L 1.484375 -6.59375 C 1.375 -6.015625 1.03125 -4.078125 0.90625 -3.484375 C 0.90625 -3.421875 0.9375 -3.3125 0.984375 -3.3125 C 1.125 -3.375 1.453125 -3.453125 1.890625 -3.453125 C 2.78125 -3.453125 3.453125 -2.6875 3.453125 -1.90625 C 3.453125 -0.84375 2.9375 -0.359375 2.34375 -0.359375 C 2.078125 -0.359375 1.765625 -0.515625 1.578125 -0.71875 C 1.421875 -0.90625 1.25 -1.203125 0.96875 -1.203125 C 0.671875 -1.203125 0.484375 -0.9375 0.484375 -0.671875 C 0.484375 -0.53125 0.59375 -0.3125 0.65625 -0.25 C 0.921875 -0.078125 1.40625 0.0625 1.875 0.0625 C 3.1875 0.0625 4.5625 -0.875 4.5625 -2.328125 C 4.5625 -3.3125 3.59375 -4.25 2.53125 -4.25 Z M 2.53125 -4.25 "/>
</g>
<g id="glyph-2-6">
<path d="M 0.515625 -0.5 C 0.515625 -0.125 0.828125 0.203125 1.203125 0.203125 C 1.578125 0.203125 1.859375 -0.109375 1.859375 -0.484375 C 1.859375 -0.84375 1.578125 -1.15625 1.203125 -1.15625 C 0.828125 -1.15625 0.515625 -0.859375 0.515625 -0.5 Z M 0.515625 -3.921875 C 0.515625 -3.546875 0.828125 -3.21875 1.203125 -3.21875 C 1.578125 -3.21875 1.859375 -3.53125 1.859375 -3.890625 C 1.859375 -4.265625 1.578125 -4.5625 1.203125 -4.5625 C 0.828125 -4.5625 0.515625 -4.28125 0.515625 -3.921875 Z M 0.515625 -3.921875 "/>
</g>
</g>
<clipPath id="clip-0">
<path clip-rule="nonzero" d="M 2.222656 2.503906 L 180.597656 2.503906 L 180.597656 279.804688 L 2.222656 279.804688 Z M 2.222656 2.503906 "/>
</clipPath>
<clipPath id="clip-1">
<path clip-rule="nonzero" d="M 2.222656 129 L 179 129 L 179 133 L 2.222656 133 Z M 2.222656 129 "/>
</clipPath>
</defs>
<g clip-path="url(#clip-0)">
<path fill-rule="evenodd" fill="rgb(100%, 100%, 100%)" fill-opacity="1" d="M 2.222656 279.804688 L 430.21875 279.804688 L 430.21875 -43.175781 L 2.222656 -43.175781 Z M 2.222656 279.804688 "/>
</g>
<g clip-path="url(#clip-1)">
<path fill="none" stroke-width="35.88" stroke-linecap="butt" stroke-linejoin="miter" stroke="rgb(7.437134%, 6.462097%, 5.702209%)" stroke-opacity="1" stroke-dasharray="71.7599 71.7599" stroke-miterlimit="4" d="M 46.015625 1738.085938 L 1771.09375 1738.085938 " transform="matrix(0.1, 0, 0, -0.1, 0, 305)"/>
</g>
<path fill="none" stroke-width="20.5028" stroke-linecap="square" stroke-linejoin="round" stroke="rgb(22.817993%, 45.594788%, 73.377991%)" stroke-opacity="1" stroke-miterlimit="4" d="M 106.015625 2987.890625 L 140 2903.359375 L 173.945312 2824.335938 L 207.929688 2750.507812 L 241.875 2681.5625 L 275.859375 2617.148438 L 309.804688 2556.953125 L 343.75 2500.742188 L 377.734375 2448.203125 L 411.679688 2399.140625 L 445.664062 2353.28125 L 479.609375 2310.46875 L 513.554688 2270.46875 L 547.539062 2233.046875 L 581.484375 2198.125 L 615.429688 2165.507812 L 649.414062 2135.039062 L 683.359375 2106.5625 L 717.34375 2079.960938 L 751.289062 2055.117188 L 785.273438 2031.875 L 819.21875 2010.195312 L 853.164062 1989.921875 L 887.148438 1970.976562 L 921.09375 1953.28125 L 955.078125 1936.757812 L 989.023438 1921.328125 L 1022.96875 1906.914062 L 1056.953125 1893.4375 L 1090.898438 1880.859375 L 1124.84375 1869.101562 L 1158.828125 1858.085938 L 1192.773438 1847.8125 L 1226.757812 1838.242188 L 1260.703125 1829.296875 L 1294.6875 1820.898438 L 1328.632812 1813.085938 L 1362.578125 1805.78125 L 1396.5625 1798.945312 L 1430.507812 1792.578125 L 1464.453125 1786.640625 L 1498.4375 1781.054688 L 1532.382812 1775.859375 L 1566.367188 1771.015625 L 1600.3125 1766.484375 L 1634.296875 1762.226562 L 1668.242188 1758.28125 L 1702.1875 1754.570312 L 1736.171875 1751.132812 L 1770.117188 1747.890625 " transform="matrix(0.1, 0, 0, -0.1, 0, 305)"/>
<path fill="none" stroke-width="20.5028" stroke-linecap="square" stroke-linejoin="round" stroke="rgb(22.817993%, 45.594788%, 73.377991%)" stroke-opacity="1" stroke-miterlimit="4" d="M 106.015625 487.070312 L 140 571.640625 L 173.945312 650.664062 L 207.929688 724.453125 L 241.875 793.398438 L 275.859375 857.8125 L 309.804688 918.007812 L 343.75 974.257812 L 377.734375 1026.757812 L 411.679688 1075.859375 L 445.664062 1121.679688 L 479.609375 1164.53125 L 513.554688 1204.53125 L 547.539062 1241.914062 L 581.484375 1276.835938 L 615.429688 1309.453125 L 649.414062 1339.960938 L 683.359375 1368.4375 L 717.34375 1395.039062 L 751.289062 1419.882812 L 785.273438 1443.125 L 819.21875 1464.804688 L 853.164062 1485.078125 L 887.148438 1503.984375 L 921.09375 1521.679688 L 955.078125 1538.203125 L 989.023438 1553.632812 L 1022.96875 1568.085938 L 1056.953125 1581.5625 L 1090.898438 1594.140625 L 1124.84375 1605.898438 L 1158.828125 1616.875 L 1192.773438 1627.148438 L 1226.757812 1636.757812 L 1260.703125 1645.703125 L 1294.6875 1654.0625 L 1328.632812 1661.875 L 1362.578125 1669.179688 L 1396.5625 1676.015625 L 1430.507812 1682.382812 L 1464.453125 1688.359375 L 1498.4375 1693.90625 L 1532.382812 1699.101562 L 1566.367188 1703.984375 L 1600.3125 1708.515625 L 1634.296875 1712.734375 L 1668.242188 1716.71875 L 1702.1875 1720.390625 L 1736.171875 1723.867188 L 1770.117188 1727.109375 " transform="matrix(0.1, 0, 0, -0.1, 0, 305)"/>
<path fill="none" stroke-width="20.5028" stroke-linecap="butt" stroke-linejoin="miter" stroke="rgb(7.437134%, 6.462097%, 5.702209%)" stroke-opacity="1" stroke-miterlimit="4" d="M 652.265625 2294.257812 L 1377.773438 2294.257812 " transform="matrix(0.1, 0, 0, -0.1, 0, 305)"/>
<path fill-rule="nonzero" fill="rgb(7.437134%, 6.462097%, 5.702209%)" fill-opacity="1" d="M 136.238281 81.722656 L 148.542969 75.574219 L 136.238281 69.421875 "/>
<path fill="none" stroke-width="20.5028" stroke-linecap="butt" stroke-linejoin="miter" stroke="rgb(7.437134%, 6.462097%, 5.702209%)" stroke-opacity="1" stroke-miterlimit="4" d="M 608.4375 1147.070312 L 1333.945312 1147.070312 " transform="matrix(0.1, 0, 0, -0.1, 0, 305)"/>
<path fill-rule="nonzero" fill="rgb(7.437134%, 6.462097%, 5.702209%)" fill-opacity="1" d="M 131.855469 196.441406 L 144.15625 190.292969 L 131.855469 184.140625 "/>
<g fill="rgb(7.437134%, 6.462097%, 5.702209%)" fill-opacity="1">
<use xlink:href="#glyph-0-0" x="8.375" y="123.409"/>
</g>
<g fill="rgb(7.437134%, 6.462097%, 5.702209%)" fill-opacity="1">
<use xlink:href="#glyph-0-1" x="17.93711" y="123.409"/>
</g>
<g fill="rgb(7.437134%, 6.462097%, 5.702209%)" fill-opacity="1">
<use xlink:href="#glyph-0-2" x="28.676174" y="123.409"/>
</g>
<g fill="rgb(7.437134%, 6.462097%, 5.702209%)" fill-opacity="1">
<use xlink:href="#glyph-0-3" x="39.77227" y="123.409"/>
</g>
<g fill="rgb(7.437134%, 6.462097%, 5.702209%)" fill-opacity="1">
<use xlink:href="#glyph-0-4" x="48.830082" y="123.409"/>
</g>
<g fill="rgb(7.437134%, 6.462097%, 5.702209%)" fill-opacity="1">
<use xlink:href="#glyph-0-5" x="55.849226" y="123.409"/>
</g>
<g fill="rgb(7.437134%, 6.462097%, 5.702209%)" fill-opacity="1">
<use xlink:href="#glyph-0-6" x="66.629697" y="123.409"/>
</g>
<g fill="rgb(7.437134%, 6.462097%, 5.702209%)" fill-opacity="1">
<use xlink:href="#glyph-0-7" x="20.6766" y="24.4828"/>
</g>
<g fill="rgb(7.437134%, 6.462097%, 5.702209%)" fill-opacity="1">
<use xlink:href="#glyph-0-3" x="38.791837" y="24.4828"/>
</g>
<g fill="rgb(7.437134%, 6.462097%, 5.702209%)" fill-opacity="1">
<use xlink:href="#glyph-0-8" x="47.744572" y="24.4828"/>
</g>
<g fill="rgb(7.437134%, 6.462097%, 5.702209%)" fill-opacity="1">
<use xlink:href="#glyph-0-9" x="57.096526" y="24.4828"/>
</g>
<g fill="rgb(7.437134%, 6.462097%, 5.702209%)" fill-opacity="1">
<use xlink:href="#glyph-0-10" x="71.21879" y="24.4828"/>
</g>
<g fill="rgb(7.437134%, 6.462097%, 5.702209%)" fill-opacity="1">
<use xlink:href="#glyph-0-3" x="88.09418" y="24.4828"/>
</g>
<g fill="rgb(7.437134%, 6.462097%, 5.702209%)" fill-opacity="1">
<use xlink:href="#glyph-0-11" x="97.361761" y="24.4828"/>
</g>
<g fill="rgb(7.437134%, 6.462097%, 5.702209%)" fill-opacity="1">
<use xlink:href="#glyph-0-12" x="106.839884" y="24.4828"/>
</g>
<g fill="rgb(7.437134%, 6.462097%, 5.702209%)" fill-opacity="1">
<use xlink:href="#glyph-0-13" x="117.999255" y="24.4828"/>
</g>
<g fill="rgb(7.437134%, 6.462097%, 5.702209%)" fill-opacity="1">
<use xlink:href="#glyph-0-4" x="122.790658" y="24.4828"/>
</g>
<g fill="rgb(7.437134%, 6.462097%, 5.702209%)" fill-opacity="1">
<use xlink:href="#glyph-0-2" x="129.599648" y="24.4828"/>
</g>
<g fill="rgb(7.437134%, 6.462097%, 5.702209%)" fill-opacity="1">
<use xlink:href="#glyph-0-14" x="140.69574" y="24.4828"/>
</g>
<g fill="rgb(7.437134%, 6.462097%, 5.702209%)" fill-opacity="1">
<use xlink:href="#glyph-0-9" x="151.855114" y="24.4828"/>
</g>
<g fill="rgb(7.437134%, 6.462097%, 5.702209%)" fill-opacity="1">
<use xlink:href="#glyph-1-0" x="94.4868" y="277.1798"/>
</g>
<g fill="rgb(7.437134%, 6.462097%, 5.702209%)" fill-opacity="1">
<use xlink:href="#glyph-1-1" x="48.8681" y="228.4857"/>
</g>
<path fill="none" stroke-width="15.3771" stroke-linecap="butt" stroke-linejoin="miter" stroke="rgb(7.437134%, 6.462097%, 5.702209%)" stroke-opacity="1" stroke-dasharray="30.7542 30.7542" stroke-miterlimit="4" d="M 912.148438 2778.671875 C 817.929688 2603.828125 665.195312 2503.242188 453.90625 2476.992188 L 446.25 2476.328125 " transform="matrix(0.1, 0, 0, -0.1, 0, 305)"/>
<path fill-rule="nonzero" fill="rgb(7.437134%, 6.462097%, 5.702209%)" fill-opacity="1" d="M 45.101562 53.929688 L 38.652344 57.878906 L 45.679688 60.671875 "/>
<path fill="none" stroke-width="12.8143" stroke-linecap="butt" stroke-linejoin="miter" stroke="rgb(7.437134%, 6.462097%, 5.702209%)" stroke-opacity="1" stroke-miterlimit="4" d="M 652.1875 419.414062 L 1108.75 419.414062 " transform="matrix(0.1, 0, 0, -0.1, 0, 305)"/>
<path fill-rule="nonzero" fill="rgb(7.437134%, 6.462097%, 5.702209%)" fill-opacity="1" d="M 108.867188 267.363281 L 117.476562 263.058594 L 108.867188 258.753906 "/>
<path fill="none" stroke-width="12.8143" stroke-linecap="butt" stroke-linejoin="miter" stroke="rgb(7.437134%, 6.462097%, 5.702209%)" stroke-opacity="1" stroke-miterlimit="4" d="M 651.484375 414.414062 L 651.484375 870.976562 " transform="matrix(0.1, 0, 0, -0.1, 0, 305)"/>
<path fill-rule="nonzero" fill="rgb(7.437134%, 6.462097%, 5.702209%)" fill-opacity="1" d="M 69.578125 218.925781 L 65.273438 210.316406 L 60.964844 218.925781 "/>
<g fill="rgb(13.729858%, 12.159729%, 12.548828%)" fill-opacity="1">
<use xlink:href="#glyph-2-0" x="204.265" y="297.76133"/>
</g>
<g fill="rgb(13.729858%, 12.159729%, 12.548828%)" fill-opacity="1">
<use xlink:href="#glyph-2-1" x="209.821097" y="297.76133"/>
</g>
<g fill="rgb(13.729858%, 12.159729%, 12.548828%)" fill-opacity="1">
<use xlink:href="#glyph-2-2" x="212.865252" y="297.76133"/>
<use xlink:href="#glyph-2-3" x="217.74783" y="297.76133"/>
</g>
<g fill="rgb(13.729858%, 12.159729%, 12.548828%)" fill-opacity="1">
<use xlink:href="#glyph-2-4" x="222.273577" y="297.76133"/>
</g>
<g fill="rgb(13.729858%, 12.159729%, 12.548828%)" fill-opacity="1">
<use xlink:href="#glyph-2-3" x="227.334626" y="297.76133"/>
</g>
<g fill="rgb(13.729858%, 12.159729%, 12.548828%)" fill-opacity="1">
<use xlink:href="#glyph-2-5" x="229.631075" y="297.76133"/>
</g>
<g fill="rgb(13.729858%, 12.159729%, 12.548828%)" fill-opacity="1">
<use xlink:href="#glyph-2-6" x="234.692124" y="297.76133"/>
</g>
</svg>
